<svg id="Group_554" data-name="Group 554" xmlns="http://www.w3.org/2000/svg" xmlns:xlink="http://www.w3.org/1999/xlink" width="145.975" height="135.527" viewBox="0 0 145.975 135.527">
  <defs>
    <clipPath id="clip-path">
      <rect id="Rectangle_583" data-name="Rectangle 583" width="145.975" height="111.418" fill="none"/>
    </clipPath>
    <clipPath id="clip-path-2">
      <path id="Path_1354" data-name="Path 1354" d="M43.547,26.378l-.4,1.155-1.211-.151a32.094,32.094,0,0,0-4.052-.246c-16.11,0-31.33,9.673-30.744,24.951a18.5,18.5,0,0,0,3.314,10.7H68.2V8.413c-.147-.007-.289-.005-.43,0a4.5,4.5,0,0,1-.573-.017,16.888,16.888,0,0,0-2.013-.121c-9.67,0-18.3,8.366-21.632,18.106" transform="translate(-7.127 -8.272)" fill="none"/>
    </clipPath>
    <clipPath id="clip-path-4">
      <path id="Path_1356" data-name="Path 1356" d="M43.547,26.361l-.4,1.154-1.211-.151a32.094,32.094,0,0,0-4.052-.246c-16.11,0-31.33,9.673-30.744,24.951a18.5,18.5,0,0,0,3.314,10.7H68.2V8.395c-.146-.007-.288,0-.429,0a4.518,4.518,0,0,1-.574-.016,16.685,16.685,0,0,0-2.014-.121c-9.671,0-18.3,8.365-21.631,18.106" transform="translate(-7.127 -8.255)" fill="none"/>
    </clipPath>
    <clipPath id="clip-path-5">
      <rect id="Rectangle_627" data-name="Rectangle 627" width="145.975" height="135.527" fill="none"/>
    </clipPath>
    <clipPath id="clip-path-6">
      <rect id="Rectangle_626" data-name="Rectangle 626" width="2.213" height="4.471" fill="none"/>
    </clipPath>
  </defs>
  <g id="Group_553" data-name="Group 553" transform="translate(0)">
    <g id="Group_506" data-name="Group 506">
      <g id="Group_505" data-name="Group 505" clip-path="url(#clip-path)">
        <path id="Path_1352" data-name="Path 1352" d="M127.214,37.559l-1.742-.663-.7-1.723a25.929,25.929,0,0,0-22.509-16.015l-2.328-.133L98.8,17A32.887,32.887,0,0,0,84.791,3.6,33.866,33.866,0,0,0,69.608,0,33.165,33.165,0,0,0,40.152,17.493l-1.192,2.234H36.423C16.337,19.783,0,34.379,0,52.25A29.888,29.888,0,0,0,5.32,69.173a3.233,3.233,0,0,0,2.65,1.4H135.486a3.217,3.217,0,0,0,2.746-1.552,21.462,21.462,0,0,0,3.123-11.15,21.8,21.8,0,0,0-14.141-20.313" transform="translate(0 0)" fill="#009ddd"/>
        <path id="Path_1353" data-name="Path 1353" d="M36.274,24.294a37.7,37.7,0,0,1,4.392.265l1.306.151.436-1.25a28.274,28.274,0,0,1,26.9-18.912c.359,0,.719,0,1.1.019V65.411H8.578A24.987,24.987,0,0,1,4.584,51.952c0-15.258,14.216-27.658,31.69-27.658" transform="translate(0.3 0.298)" fill="#050605"/>
      </g>
    </g>
    <g id="Group_508" data-name="Group 508" transform="translate(7.593 8.813)">
      <g id="Group_507" data-name="Group 507" clip-path="url(#clip-path-2)">
        <rect id="Rectangle_584" data-name="Rectangle 584" width="0.946" height="21.941" transform="translate(1.872 31.339)" fill="#fff"/>
        <rect id="Rectangle_585" data-name="Rectangle 585" width="1.306" height="21.941" transform="translate(-0.949 31.339)" fill="#fff"/>
        <rect id="Rectangle_586" data-name="Rectangle 586" width="0.946" height="36.366" transform="translate(4.334 24.638)" fill="#fff"/>
        <rect id="Rectangle_587" data-name="Rectangle 587" width="1.231" height="35.003" transform="translate(9.898 21.192)" fill="#fff"/>
        <rect id="Rectangle_588" data-name="Rectangle 588" width="1.231" height="37.918" transform="translate(12.757 18.277)" fill="#fff"/>
        <rect id="Rectangle_589" data-name="Rectangle 589" width="2.593" height="40.057" transform="translate(16.43 16.119)" fill="#fff"/>
        <rect id="Rectangle_590" data-name="Rectangle 590" width="0.946" height="41.591" transform="translate(20.651 14.585)" fill="#fff"/>
        <rect id="Rectangle_591" data-name="Rectangle 591" width="1.231" height="42.822" transform="translate(25.006 13.354)" fill="#fff"/>
        <rect id="Rectangle_592" data-name="Rectangle 592" width="0.682" height="42.822" transform="translate(22.564 13.354)" fill="#fff"/>
        <rect id="Rectangle_593" data-name="Rectangle 593" width="0.946" height="43.181" transform="translate(33.638 12.995)" fill="#fff"/>
        <rect id="Rectangle_594" data-name="Rectangle 594" width="0.682" height="44.45" transform="translate(35.531 11.726)" fill="#fff"/>
        <rect id="Rectangle_595" data-name="Rectangle 595" width="1.098" height="42.822" transform="translate(28.81 13.354)" fill="#fff"/>
        <rect id="Rectangle_596" data-name="Rectangle 596" width="0.89" height="51.416" transform="translate(37.859 4.76)" fill="#fff"/>
        <rect id="Rectangle_597" data-name="Rectangle 597" width="0.814" height="55.865" transform="translate(41.873 0.311)" fill="#fff"/>
        <rect id="Rectangle_598" data-name="Rectangle 598" width="1.496" height="61.392" transform="translate(50.183 -5.216)" fill="#fff"/>
        <rect id="Rectangle_599" data-name="Rectangle 599" width="0.758" height="61.392" transform="translate(46.113 -5.216)" fill="#fff"/>
        <rect id="Rectangle_600" data-name="Rectangle 600" width="1.231" height="57.247" transform="translate(43.52 -1.071)" fill="#fff"/>
        <rect id="Rectangle_601" data-name="Rectangle 601" width="0.814" height="60.825" transform="translate(53.307 -4.649)" fill="#fff"/>
        <rect id="Rectangle_602" data-name="Rectangle 602" width="1.231" height="62.339" transform="translate(54.935 -6.143)" fill="#fff"/>
        <rect id="Rectangle_603" data-name="Rectangle 603" width="1.628" height="62.339" transform="translate(58.21 -6.143)" fill="#fff"/>
      </g>
    </g>
    <g id="Group_510" data-name="Group 510">
      <g id="Group_509" data-name="Group 509" clip-path="url(#clip-path)">
        <path id="Path_1355" data-name="Path 1355" d="M36.274,24.276a37.7,37.7,0,0,1,4.392.265l1.306.151.436-1.25a28.274,28.274,0,0,1,26.9-18.912c.359,0,.719,0,1.1.019V65.393H8.578A24.987,24.987,0,0,1,4.584,51.934c0-15.239,14.216-27.658,31.69-27.658" transform="translate(0.3 0.297)" fill="#fff"/>
      </g>
    </g>
    <g id="Group_512" data-name="Group 512" transform="translate(7.593 8.795)">
      <g id="Group_511" data-name="Group 511" clip-path="url(#clip-path-4)">
        <rect id="Rectangle_605" data-name="Rectangle 605" width="0.946" height="21.941" transform="translate(1.872 31.338)" fill="#050605"/>
        <rect id="Rectangle_606" data-name="Rectangle 606" width="1.306" height="21.941" transform="translate(-0.949 31.338)" fill="#050605"/>
        <rect id="Rectangle_607" data-name="Rectangle 607" width="0.946" height="36.366" transform="translate(4.334 24.656)" fill="#050605"/>
        <rect id="Rectangle_608" data-name="Rectangle 608" width="1.231" height="35.003" transform="translate(9.898 21.192)" fill="#050605"/>
        <rect id="Rectangle_609" data-name="Rectangle 609" width="1.231" height="37.918" transform="translate(12.757 18.276)" fill="#050605"/>
        <rect id="Rectangle_610" data-name="Rectangle 610" width="2.593" height="40.057" transform="translate(16.43 16.137)" fill="#050605"/>
        <rect id="Rectangle_611" data-name="Rectangle 611" width="0.946" height="41.591" transform="translate(20.651 14.603)" fill="#050605"/>
        <rect id="Rectangle_612" data-name="Rectangle 612" width="1.231" height="42.822" transform="translate(25.006 13.373)" fill="#050605"/>
        <rect id="Rectangle_613" data-name="Rectangle 613" width="0.682" height="42.822" transform="translate(22.564 13.373)" fill="#050605"/>
        <rect id="Rectangle_614" data-name="Rectangle 614" width="0.946" height="43.181" transform="translate(33.638 13.013)" fill="#050605"/>
        <rect id="Rectangle_615" data-name="Rectangle 615" width="0.682" height="44.45" transform="translate(35.531 11.726)" fill="#050605"/>
        <rect id="Rectangle_616" data-name="Rectangle 616" width="1.098" height="42.822" transform="translate(28.81 13.373)" fill="#050605"/>
        <rect id="Rectangle_617" data-name="Rectangle 617" width="0.89" height="51.416" transform="translate(37.859 4.779)" fill="#050605"/>
        <rect id="Rectangle_618" data-name="Rectangle 618" width="0.814" height="55.865" transform="translate(41.873 0.329)" fill="#050605"/>
        <rect id="Rectangle_619" data-name="Rectangle 619" width="1.496" height="61.392" transform="translate(50.183 -5.198)" fill="#050605"/>
        <rect id="Rectangle_620" data-name="Rectangle 620" width="0.758" height="61.392" transform="translate(46.113 -5.198)" fill="#050605"/>
        <rect id="Rectangle_621" data-name="Rectangle 621" width="1.231" height="57.247" transform="translate(43.52 -1.053)" fill="#050605"/>
        <rect id="Rectangle_622" data-name="Rectangle 622" width="0.814" height="60.825" transform="translate(53.307 -4.649)" fill="#050605"/>
        <rect id="Rectangle_623" data-name="Rectangle 623" width="1.231" height="62.339" transform="translate(54.935 -6.144)" fill="#050605"/>
        <rect id="Rectangle_624" data-name="Rectangle 624" width="1.628" height="62.339" transform="translate(58.21 -6.144)" fill="#050605"/>
      </g>
    </g>
    <g id="Group_517" data-name="Group 517">
      <g id="Group_516" data-name="Group 516" clip-path="url(#clip-path-5)">
        <path id="Path_1357" data-name="Path 1357" d="M.018,71.274H11.527c4.411,0,6.967,1.893,6.929,5.415a4.694,4.694,0,0,1-3.1,4.714,5.272,5.272,0,0,1,3.994,5.357c0,2.915-1.8,5.812-7.307,5.812H.018Zm5.755,8.613H9.823c1.7,0,2.67-.662,2.67-1.968S11.6,75.95,9.823,75.95H5.773Zm0,8.027h4.847c1.95,0,2.764-.909,2.764-2.12,0-1.06-.7-2.1-2.764-2.1H5.773Z" transform="translate(0.001 4.665)" fill="#050605"/>
        <path id="Path_1358" data-name="Path 1358" d="M35.554,82.391v9.826H30.2V90.4a6.8,6.8,0,0,1-5.074,2.139,5.035,5.035,0,0,1-3.559-1.306A4.563,4.563,0,0,1,20.2,87.786c0-2.82,2.1-4.448,5.508-4.467h4.506v-.4c0-1.439-1-2.064-2.669-2.064a8.748,8.748,0,0,0-4.411,1.306l-1.515-3.407a15.419,15.419,0,0,1,7.4-2.045c3.9,0,6.531,1.779,6.531,5.679M30.2,85.344h-2.4c-1.495,0-2.309.663-2.309,1.893a1.949,1.949,0,0,0,2.045,2.12,4.488,4.488,0,0,0,2.669-.814Z" transform="translate(1.322 5.021)" fill="#050605"/>
        <path id="Path_1359" data-name="Path 1359" d="M48.181,81.029a6.781,6.781,0,0,0-5.262,2.707v8.481H37.561V77h5.358v2.8c1.552-1.969,3.445-3.1,5.262-3.1Z" transform="translate(2.458 5.02)" fill="#050605"/>
        <path id="Path_1360" data-name="Path 1360" d="M69.747,75.686l-4.96,2.764a5.274,5.274,0,0,0-7.384-.984,5.051,5.051,0,0,0-.586.531,5.98,5.98,0,0,0,0,7.913,5.245,5.245,0,0,0,7.439.132,7.708,7.708,0,0,0,.531-.587l4.96,2.764a11.254,11.254,0,0,1-9.181,4.7A11.078,11.078,0,0,1,49.377,81.951c-.151-5.925,5.149-11.074,11.188-10.96a11.25,11.25,0,0,1,9.181,4.694" transform="translate(3.232 4.646)" fill="#009ddd"/>
        <rect id="Rectangle_625" data-name="Rectangle 625" width="5.357" height="23.19" transform="translate(76.045 74.047)" fill="#009ddd"/>
        <path id="Path_1361" data-name="Path 1361" d="M96.193,84.607a7.3,7.3,0,0,1-2.555,5.6,8.633,8.633,0,0,1-6.115,2.309,8.787,8.787,0,0,1-6.153-2.309,7.5,7.5,0,0,1,0-11.208,8.787,8.787,0,0,1,6.153-2.309c4.657-.076,8.764,3.634,8.67,7.913M87.5,88a3.337,3.337,0,0,0,2.366-.965,3.278,3.278,0,0,0,1-2.4,3.125,3.125,0,0,0-1-2.366c-1.95-2.2-5.907-.51-5.755,2.366A3.4,3.4,0,0,0,87.5,88" transform="translate(5.161 5.02)" fill="#009ddd"/>
        <path id="Path_1362" data-name="Path 1362" d="M102.92,77v8.878a2.054,2.054,0,0,0,2.159,2.31,5.124,5.124,0,0,0,3.369-1.211V77H113.8v15.22h-5.357V90.551a8.878,8.878,0,0,1-5.566,1.969c-3.123,0-5.319-1.742-5.319-5.017V77.015h5.357Z" transform="translate(6.386 5.04)" fill="#009ddd"/>
        <path id="Path_1363" data-name="Path 1363" d="M132.088,69.5V92.69h-5.357V90.834a6.367,6.367,0,0,1-4.808,2.159,5.872,5.872,0,0,1-4.847-2.252,9.808,9.808,0,0,1,0-11.322,5.872,5.872,0,0,1,4.847-2.252,6.465,6.465,0,0,1,4.808,2.159V69.48ZM121.562,82.713a3.258,3.258,0,0,0-.965,2.366,3.458,3.458,0,0,0,.965,2.4,3.216,3.216,0,0,0,2.347.966,3.4,3.4,0,0,0,2.821-1.647V83.337a3.318,3.318,0,0,0-2.821-1.646,3.238,3.238,0,0,0-2.347,1.022" transform="translate(7.545 4.548)" fill="#009ddd"/>
        <path id="Path_1364" data-name="Path 1364" d="M134.959,75.087a2.234,2.234,0,1,1-2.234,2.234A2.234,2.234,0,0,1,134.959,75.087Z" transform="translate(8.687 4.915)" fill="none" stroke="#1a1718" stroke-miterlimit="10" stroke-width="0.178"/>
        <g id="Group_515" data-name="Group 515" transform="translate(142.554 80.141)" style="isolation: isolate">
          <g id="Group_514" data-name="Group 514">
            <g id="Group_513" data-name="Group 513" clip-path="url(#clip-path-6)">
              <text id="R" transform="translate(0 2.247)" fill="#050605" font-size="2" font-family="MyriadPro-Regular, Myriad Pro"><tspan x="0" y="0">R</tspan></text>
            </g>
          </g>
        </g>
        <text id="BY_ASAP_SYSTEMS" data-name="BY ASAP SYSTEMS" transform="translate(0.747 111.506)" fill="#1a1818" font-size="12" font-family="AbadiMT-CondensedLight, Abadi MT Condensed Light" font-weight="300"><tspan x="0" y="0" letter-spacing="0.41em">B</tspan><tspan y="0" letter-spacing="0.409em">Y</tspan><tspan y="0" xml:space="preserve" letter-spacing="0.41em"> ASAP S</tspan><tspan y="0" letter-spacing="0.392em">Y</tspan><tspan y="0" letter-spacing="0.41em">S</tspan><tspan y="0" letter-spacing="0.409em">TEM</tspan><tspan y="0">S</tspan></text>
      </g>
    </g>
  </g>
  <text id="HUB" transform="translate(59.791 44.619)" fill="#fff" font-size="23" font-family="PTSans-CaptionBold, PT Sans Caption" font-weight="700"><tspan x="-23.299" y="21">HUB</tspan></text>
</svg>
