<?xml version="1.0" encoding="utf-8"?>
<!-- Generator: Adobe Illustrator 24.2.0, SVG Export Plug-In . SVG Version: 6.00 Build 0)  -->
<svg version="1.1" id="Layer_1" xmlns="http://www.w3.org/2000/svg" xmlns:xlink="http://www.w3.org/1999/xlink" x="0px" y="0px"
	 viewBox="0 0 365 323" style="enable-background:new 0 0 365 323;" xml:space="preserve">
<style type="text/css">
	.st0{fill:#645F5F;}
	.st1{fill:#E5E5E4;stroke:#E5E5E4;stroke-width:0.75;stroke-miterlimit:10;}
	.st2{fill:url(#SVGID_1_);}
</style>
<rect x="15.4" y="115" class="st0" width="2.8" height="42.6"/>
<rect x="22.7" y="102" class="st0" width="2.8" height="70.6"/>
<rect x="39.3" y="83.3" class="st0" width="3.7" height="92.5"/>
<rect x="47.8" y="75.6" class="st0" width="3.7" height="100.2"/>
<rect x="58.8" y="69.9" class="st0" width="7.7" height="105.9"/>
<rect x="71.4" y="65.9" class="st0" width="2.8" height="109.9"/>
<rect x="84.4" y="62.6" class="st0" width="3.7" height="113.2"/>
<rect x="77.1" y="62.6" class="st0" width="2" height="113.2"/>
<rect x="95.7" y="62.6" class="st0" width="3.2" height="113.2"/>
<rect x="107.9" y="62.6" class="st0" width="2.8" height="113.2"/>
<rect x="122.7" y="39.9" class="st0" width="2.6" height="135.9"/>
<rect x="134.7" y="28.2" class="st0" width="2.4" height="147.7"/>
<rect x="159.4" y="13.6" class="st0" width="4.5" height="162.3"/>
<rect x="139.5" y="24.5" class="st0" width="3.7" height="151.3"/>
<rect x="172.4" y="11.5" class="st0" width="4.5" height="164.3"/>
<path class="st1" d="M348.8,174.6c0,0,9.7-11.2,8.9-26.9c0,0-4.5-44.1-43-43.3c0,0-6.5-49.4-62.5-43.7c0,0-11-46-65.3-48.2
	l-2.4,162.1H348.8z"/>
<linearGradient id="SVGID_1_" gradientUnits="userSpaceOnUse" x1="185.693" y1="174.8767" x2="287.8682" y2="72.7016">
	<stop  offset="0" style="stop-color:#D0D2D3"/>
	<stop  offset="0.2767" style="stop-color:#D6D8D9"/>
	<stop  offset="0.6623" style="stop-color:#E9E9EA"/>
	<stop  offset="0.8046" style="stop-color:#F1F1F2"/>
	<stop  offset="1" style="stop-color:#FFFFFF"/>
</linearGradient>
<path class="st2" d="M340.3,173.7c0,0,9.2-10.6,8.5-25.4c0,0-3.2-37.9-39.7-37.2c0,0-5.7-48.7-62.1-41.5c0,0-8.6-46.3-60.2-49.3
	l-2.3,153.4H340.3z"/>
<rect x="183.4" y="11.1" class="st0" width="4.9" height="164.8"/>
<g>
	<path class="st0" d="M24.9,190.4h12.8c5.9,0,10.2,0.9,12.9,2.6c2.6,1.7,4,4.5,4,8.2c0,2.5-0.6,4.6-1.9,6.3
		c-1.3,1.7-3.2,2.7-5.6,3.2v0.3c3,0.6,5.2,1.7,6.7,3.4c1.4,1.7,2.1,4,2.1,6.8c0,3.9-1.4,6.9-4.1,9.1c-2.7,2.2-6.5,3.3-11.3,3.3H24.9
		V190.4z M32,208.2h6.8c2.9,0,5.1-0.5,6.5-1.4c1.4-0.9,2-2.5,2-4.8c0-2-0.7-3.5-2.2-4.4c-1.5-0.9-3.8-1.4-7-1.4H32V208.2z M32,213.9
		v13.6h7.5c2.9,0,5.2-0.6,6.7-1.7c1.5-1.1,2.3-2.9,2.3-5.3c0-2.2-0.8-3.9-2.3-5c-1.5-1.1-3.9-1.6-7-1.6H32z"/>
	<path class="st0" d="M91.5,233.5l-4.3-12H70.7l-4.2,12h-7.4l16.1-43.3h7.7L99,233.5H91.5z M85.3,215.4l-4-11.7
		c-0.3-0.8-0.7-2-1.2-3.7s-0.9-2.9-1.1-3.7c-0.5,2.4-1.3,5.1-2.3,7.9l-3.9,11.2H85.3z"/>
	<path class="st0" d="M111.7,216.3v17.2h-7v-43.1h12.2c5.6,0,9.7,1,12.3,3.1c2.7,2.1,4,5.2,4,9.4c0,5.4-2.8,9.2-8.4,11.5l12.2,19.1
		h-8l-10.3-17.2H111.7z M111.7,210.4h4.9c3.3,0,5.7-0.6,7.1-1.8c1.5-1.2,2.2-3,2.2-5.4c0-2.4-0.8-4.2-2.4-5.2
		c-1.6-1.1-4-1.6-7.2-1.6h-4.7V210.4z"/>
	<path class="st0" d="M161.5,195.8c-4,0-7.2,1.4-9.5,4.3c-2.3,2.9-3.5,6.8-3.5,11.9c0,5.3,1.1,9.3,3.3,12c2.2,2.7,5.5,4.1,9.7,4.1
		c1.8,0,3.6-0.2,5.3-0.5s3.5-0.8,5.3-1.4v6c-3.4,1.3-7.2,1.9-11.5,1.9c-6.3,0-11.1-1.9-14.5-5.7c-3.4-3.8-5.1-9.3-5.1-16.4
		c0-4.5,0.8-8.4,2.5-11.8c1.6-3.4,4-5.9,7.1-7.7c3.1-1.8,6.7-2.7,10.9-2.7c4.4,0,8.5,0.9,12.2,2.8l-2.5,5.9c-1.5-0.7-3-1.3-4.6-1.8
		C165,196.1,163.3,195.8,161.5,195.8z"/>
	<path class="st0" d="M181.4,233.5v-43.1h7v37h18.2v6H181.4z"/>
	<path class="st0" d="M252.4,211.9c0,7-1.8,12.5-5.3,16.4c-3.5,3.9-8.5,5.8-14.9,5.8c-6.5,0-11.5-1.9-15-5.8
		c-3.5-3.9-5.2-9.3-5.2-16.5s1.8-12.6,5.3-16.4c3.5-3.8,8.5-5.7,15-5.7c6.4,0,11.4,1.9,14.8,5.8
		C250.6,199.4,252.4,204.8,252.4,211.9z M219.5,211.9c0,5.3,1.1,9.3,3.2,12.1s5.3,4.1,9.5,4.1c4.2,0,7.3-1.4,9.5-4.1
		c2.1-2.7,3.2-6.7,3.2-12.1c0-5.3-1.1-9.3-3.2-12c-2.1-2.7-5.3-4.1-9.4-4.1c-4.2,0-7.4,1.4-9.6,4.1
		C220.6,202.6,219.5,206.6,219.5,211.9z"/>
	<path class="st0" d="M295.4,190.4v27.9c0,3.2-0.7,6-2,8.4c-1.4,2.4-3.3,4.2-5.9,5.5c-2.6,1.3-5.7,1.9-9.3,1.9
		c-5.3,0-9.5-1.4-12.5-4.2s-4.4-6.7-4.4-11.7v-27.8h7.1v27.3c0,3.6,0.8,6.2,2.5,7.9c1.6,1.7,4.2,2.5,7.6,2.5c6.6,0,10-3.5,10-10.5
		v-27.2H295.4z"/>
	<path class="st0" d="M341.5,211.5c0,7.1-2,12.5-5.9,16.3c-3.9,3.8-9.6,5.6-17.1,5.6h-12v-43.1h13.3c6.9,0,12.2,1.8,16,5.5
		C339.6,199.6,341.5,204.8,341.5,211.5z M334,211.8c0-10.3-4.8-15.5-14.5-15.5h-6.1v31.3h5C328.8,227.5,334,222.3,334,211.8z"/>
</g>
<g>
	<path class="st0" d="M46.4,300.2H24.8v-39.5h21.6v2.5H27.6v14.9h17.8v2.5H27.6v16.9h18.8V300.2z"/>
	<path class="st0" d="M75.1,300.2v-19c0-3-0.6-5.1-1.9-6.4c-1.2-1.3-3.2-2-5.8-2c-3.5,0-6.1,0.9-7.7,2.7c-1.6,1.8-2.4,4.7-2.4,8.6
		v16.2h-2.7v-29.4h2.3l0.5,4h0.2c1.9-3.1,5.3-4.6,10.2-4.6c6.7,0,10,3.6,10,10.7v19.2H75.1z"/>
	<path class="st0" d="M95,298.4c1.7,0,3.2-0.1,4.4-0.4v2.2c-1.3,0.4-2.8,0.6-4.5,0.6c-2.6,0-4.5-0.7-5.7-2.1
		c-1.2-1.4-1.9-3.6-1.9-6.5v-19H83v-1.6l4.3-1.2l1.4-6.6h1.4v7.1h8.6v2.3h-8.6v18.6c0,2.3,0.4,3.9,1.2,5
		C92.1,297.9,93.3,298.4,95,298.4z"/>
	<path class="st0" d="M117.7,300.8c-4.3,0-7.6-1.3-10-3.9c-2.4-2.6-3.6-6.3-3.6-11c0-4.7,1.2-8.4,3.5-11.2c2.3-2.8,5.4-4.2,9.3-4.2
		c3.5,0,6.2,1.2,8.2,3.6c2,2.4,3,5.7,3,9.8v2.2h-21.1c0,4,1,7.1,2.8,9.2c1.8,2.1,4.5,3.2,7.9,3.2c1.7,0,3.1-0.1,4.4-0.4
		c1.3-0.2,2.9-0.7,4.8-1.5v2.4c-1.7,0.7-3.2,1.2-4.6,1.5S119.4,300.8,117.7,300.8z M116.9,272.7c-2.8,0-5.1,0.9-6.8,2.8
		c-1.7,1.9-2.7,4.6-3,8.1h18.1c0-3.4-0.7-6.1-2.2-8C121.5,273.6,119.5,272.7,116.9,272.7z"/>
	<path class="st0" d="M147.7,270.3c1.2,0,2.6,0.1,4,0.4l-0.5,2.6c-1.2-0.3-2.5-0.5-3.8-0.5c-2.5,0-4.6,1.1-6.2,3.2
		c-1.6,2.1-2.4,4.8-2.4,8v16.2h-2.7v-29.4h2.3l0.3,5.3h0.2c1.2-2.2,2.5-3.7,3.9-4.6S145.8,270.3,147.7,270.3z"/>
	<path class="st0" d="M170.3,300.8c-4.5,0-7.8-1.7-9.9-5.1h-0.2l0.1,2.3c0.1,1.3,0.1,2.8,0.1,4.4v11.2h-2.7v-42.6h2.3l0.5,4.2h0.2
		c2-3.2,5.2-4.8,9.7-4.8c4,0,7,1.3,9.1,3.9c2.1,2.6,3.1,6.4,3.1,11.4c0,4.8-1.1,8.6-3.3,11.2C177,299.4,174,300.8,170.3,300.8z
		 M170.2,298.4c3,0,5.3-1.1,7-3.3s2.5-5.4,2.5-9.4c0-8.6-3.1-12.9-9.3-12.9c-3.4,0-5.9,0.9-7.5,2.8c-1.6,1.9-2.4,4.9-2.4,9.2v0.9
		c0,4.6,0.8,7.9,2.3,9.8C164.2,297.4,166.7,298.4,170.2,298.4z"/>
	<path class="st0" d="M202.2,270.3c1.2,0,2.6,0.1,4,0.4l-0.5,2.6c-1.2-0.3-2.5-0.5-3.8-0.5c-2.5,0-4.6,1.1-6.2,3.2
		c-1.6,2.1-2.4,4.8-2.4,8v16.2h-2.7v-29.4h2.3l0.3,5.3h0.2c1.2-2.2,2.5-3.7,3.9-4.6S200.2,270.3,202.2,270.3z"/>
	<path class="st0" d="M211.8,262.7c0-1.7,0.6-2.6,1.7-2.6c0.6,0,1,0.2,1.3,0.7c0.3,0.5,0.5,1.1,0.5,1.9c0,0.8-0.2,1.4-0.5,1.9
		c-0.3,0.5-0.8,0.7-1.3,0.7C212.3,265.3,211.8,264.5,211.8,262.7z M214.8,300.2h-2.7v-29.4h2.7V300.2z"/>
	<path class="st0" d="M242.8,292.6c0,2.6-1,4.7-3,6.1c-2,1.4-4.8,2.1-8.5,2.1c-3.9,0-7-0.6-9.3-1.8v-2.9c3,1.5,6.1,2.2,9.3,2.2
		c2.9,0,5.1-0.5,6.6-1.4c1.5-1,2.3-2.2,2.3-3.8c0-1.5-0.6-2.7-1.8-3.7c-1.2-1-3.2-2-5.9-3c-2.9-1.1-5-2-6.2-2.7
		c-1.2-0.8-2.1-1.6-2.7-2.6c-0.6-1-0.9-2.1-0.9-3.5c0-2.2,0.9-3.9,2.8-5.2c1.8-1.3,4.4-1.9,7.7-1.9c3.2,0,6.2,0.6,9,1.8l-1,2.4
		c-2.9-1.2-5.6-1.8-8-1.8c-2.4,0-4.3,0.4-5.7,1.2c-1.4,0.8-2.1,1.9-2.1,3.3c0,1.5,0.5,2.8,1.6,3.7c1.1,0.9,3.2,1.9,6.4,3.1
		c2.6,1,4.6,1.8,5.8,2.6c1.2,0.8,2.1,1.6,2.7,2.6C242.5,290.1,242.8,291.3,242.8,292.6z"/>
	<path class="st0" d="M262.3,300.8c-4.3,0-7.6-1.3-10-3.9c-2.4-2.6-3.6-6.3-3.6-11c0-4.7,1.2-8.4,3.5-11.2c2.3-2.8,5.4-4.2,9.3-4.2
		c3.5,0,6.2,1.2,8.2,3.6c2,2.4,3,5.7,3,9.8v2.2h-21.1c0,4,1,7.1,2.8,9.2c1.8,2.1,4.5,3.2,7.9,3.2c1.7,0,3.1-0.1,4.4-0.4
		c1.3-0.2,2.9-0.7,4.8-1.5v2.4c-1.7,0.7-3.2,1.2-4.6,1.5S264,300.8,262.3,300.8z M261.5,272.7c-2.8,0-5.1,0.9-6.8,2.8
		c-1.7,1.9-2.7,4.6-3,8.1h18.1c0-3.4-0.7-6.1-2.2-8C266.1,273.6,264.1,272.7,261.5,272.7z"/>
</g>
</svg>
